<svg width="64" height="64" viewBox="0 0 64 64" fill="none" xmlns="http://www.w3.org/2000/svg">
  <!-- Background with gradient -->
  <defs>
    <linearGradient id="bgGradient" x1="0%" y1="0%" x2="100%" y2="100%">
      <stop offset="0%" style="stop-color:#72e3ad;stop-opacity:1" />
      <stop offset="100%" style="stop-color:#4ade80;stop-opacity:1" />
    </linearGradient>
    <linearGradient id="strokeGradient" x1="0%" y1="0%" x2="100%" y2="100%">
      <stop offset="0%" style="stop-color:#171717;stop-opacity:1" />
      <stop offset="100%" style="stop-color:#374151;stop-opacity:1" />
    </linearGradient>
    <filter id="shadow" x="-20%" y="-20%" width="140%" height="140%">
      <feDropShadow dx="0" dy="2" stdDeviation="2" flood-color="#000000" flood-opacity="0.1"/>
    </filter>
  </defs>
  
  <!-- Main background rectangle with gradient and shadow -->
  <rect x="6" y="6" width="52" height="52" rx="18" fill="url(#bgGradient)" filter="url(#shadow)"/>
  
  <!-- Inner highlight for depth -->
  <rect x="8" y="8" width="48" height="48" rx="16" fill="none" stroke="rgba(255,255,255,0.3)" stroke-width="1"/>
  
  <!-- Main S symbol with improved path and gradient stroke -->
  <path d="M42 20C42 15.58 37.42 14 30 14C22.58 14 18 15.58 18 20C18 23.2 20.6 24.32 26.5 25.13C34.5 26.21 42 26.5 42 32C42 36.42 37.42 38 30 38C22.58 38 18 36.42 18 32" 
        stroke="url(#strokeGradient)" 
        stroke-width="3.5" 
        stroke-linecap="round" 
        stroke-linejoin="round"
        fill="none"/>
  
  <!-- Decorative dots for visual interest -->
  <circle cx="24" cy="26" r="1.5" fill="#171717" opacity="0.6"/>
  <circle cx="40" cy="30" r="1.5" fill="#171717" opacity="0.6"/>
  
  <!-- Subtle inner glow effect -->
  <path d="M42 20C42 15.58 37.42 14 30 14C22.58 14 18 15.58 18 20C18 23.2 20.6 24.32 26.5 25.13C34.5 26.21 42 26.5 42 32C42 36.42 37.42 38 30 38C22.58 38 18 36.42 18 32" 
        stroke="rgba(255,255,255,0.4)" 
        stroke-width="1.5" 
        stroke-linecap="round" 
        stroke-linejoin="round"
        fill="none"/>
</svg> 